<?xml version="1.0" encoding="utf-8"?>
<!-- Generator: Adobe Illustrator 23.1.0, SVG Export Plug-In . SVG Version: 6.00 Build 0)  -->
<svg version="1.1" id="Layer_1" xmlns="http://www.w3.org/2000/svg" xmlns:xlink="http://www.w3.org/1999/xlink" x="0px" y="0px"
	 viewBox="0 0 470 62" style="enable-background:new 0 0 470 62;" xml:space="preserve">
<style type="text/css">
	.st0{fill-rule:evenodd;clip-rule:evenodd;fill:#F7F7F7;}
</style>
<g>
	<g>
		<defs>
			<rect id="SVGID_1_" x="7.13" y="5.01" width="457.87" height="48.75"/>
		</defs>
		<clipPath id="SVGID_2_">
			<use xlink:href="#SVGID_1_"  style="overflow:visible;"/>
		</clipPath>
	</g>
</g>
<path class="st0" d="M45.48,25.05h30.84l-2.35,6.02H43.12L45.48,25.05z M151.38,7.6h-45.11c-11.63,0-22.79,11.62-29.26,22.69
	c-3.69,6.28-2.28,21.32,7.26,21.32h48.78l2.07-4.98h-29.25c-12.08,0,1.08-32.23,12.06-32.23h30.74L151.38,7.6z M83.61,7.6H38.49
	C26.87,7.6,15.7,19.22,9.23,30.29c-3.69,6.28-2.28,21.32,7.26,21.32h48.79l2.06-4.98H38.09c-12.07,0,1.07-32.23,12.05-32.23H80.9
	L83.61,7.6z M314.5,7.6h53.82c13.6,0,12.66,14.85,6.03,24.77c-7.76,12.12-17.35,19.24-29.03,19.24h-49.15L314.5,7.6z M323.08,40.86
	l12.81-26.83h13.43c5.31,0,7.4,3.23,4.94,9.23c-2.79,6.39-8.75,23.35-16.36,23.35h-12.66C322.32,46.62,321.36,44.69,323.08,40.86
	L323.08,40.86z M414.52,46.62l-2.63,4.98H365l62.19-42.1c3.06-2.34,8.42-1.91,10.04,0.41l26.71,41.69h-32.42l-18.07-29.58
	L383.8,42.09c-3.06,2.05-3.44,4.53,0,4.53H414.52z M176.27,7.6h36.9c8.41,0,12.45,10.77,5.72,22.74
	c-9.01,14.29-19.32,21.26-29.34,21.26H156.8c-10.66,0-15.46-11.19-7.72-21.27C158.05,18.59,166.07,7.6,176.27,7.6L176.27,7.6z
	 M178.04,18.98c1.41-2.7,3.31-4.94,7.78-4.94h7.14c4.08,0,7.66,5.06,4.38,11.7l-7.16,14.92c-1.35,2.57-5.71,6.01-9.44,5.97h-6.93
	c-4.27,0-7.36-5.49-4.33-10.92L178.04,18.98z M256.6,7.6h36.91c8.4,0,12.45,10.77,5.72,22.74c-9.01,14.29-19.33,21.26-29.34,21.26
	h-32.74c-10.67,0-15.46-11.19-7.72-21.27C238.38,18.59,246.41,7.6,256.6,7.6L256.6,7.6z M258.38,18.98c1.42-2.7,3.31-4.94,7.77-4.94
	h7.14c4.08,0,7.66,5.06,4.38,11.7l-7.16,14.92c-1.36,2.57-5.7,6.01-9.45,5.97h-6.92c-4.28,0-7.36-5.49-4.34-10.92L258.38,18.98z
	 M258.38,18.98"/>
</svg>
